<svg xmlns="http://www.w3.org/2000/svg" xmlns:xlink="http://www.w3.org/1999/xlink" width="33" height="25" viewBox="0 0 33 25">
  <defs>
    <clipPath id="clip-path">
      <rect id="Rectangle_1970" data-name="Rectangle 1970" width="33" height="25" transform="translate(1178.957 449.307)" fill="#911" stroke="#707070" stroke-width="1"/>
    </clipPath>
  </defs>
  <g id="Mask_Group_5" data-name="Mask Group 5" transform="translate(-1178.957 -449.307)" clip-path="url(#clip-path)">
    <g id="dashboard_1_" data-name="dashboard (1)" transform="translate(1180.773 449.019)">
      <path id="Path_555" data-name="Path 555" d="M28.594,3.241H2.069A1.423,1.423,0,0,0,.648,4.662V27.4a1.423,1.423,0,0,0,1.421,1.421H28.594A1.423,1.423,0,0,0,30.015,27.4V4.662A1.423,1.423,0,0,0,28.594,3.241ZM2.069,4.188H28.594a.474.474,0,0,1,.474.474V8.925H1.6V4.662A.474.474,0,0,1,2.069,4.188Zm7.1,5.684H29.068v5.684H9.174Zm-.947,5.684H1.6V9.872H8.227ZM1.6,27.4V16.5H8.227V27.871H2.069A.474.474,0,0,1,1.6,27.4Zm27,.474H9.174V16.5H29.068V27.4A.474.474,0,0,1,28.594,27.871Z" transform="translate(-0.648 -3.241)" fill="#911"/>
      <path id="Path_556" data-name="Path 556" d="M4.662,8.675A1.421,1.421,0,1,0,3.241,7.254,1.423,1.423,0,0,0,4.662,8.675Zm0-1.895a.474.474,0,1,1-.474.474A.474.474,0,0,1,4.662,6.781Z" transform="translate(-1.346 -3.939)" fill="#911"/>
      <path id="Path_557" data-name="Path 557" d="M9.847,8.675A1.421,1.421,0,1,0,8.426,7.254,1.423,1.423,0,0,0,9.847,8.675Zm0-1.895a.474.474,0,1,1-.474.474A.474.474,0,0,1,9.847,6.781Z" transform="translate(-2.742 -3.939)" fill="#911"/>
      <path id="Path_558" data-name="Path 558" d="M15.032,8.675a1.421,1.421,0,1,0-1.421-1.421A1.423,1.423,0,0,0,15.032,8.675Zm0-1.895a.474.474,0,1,1-.474.474A.474.474,0,0,1,15.032,6.781Z" transform="translate(-4.138 -3.939)" fill="#911"/>
      <path id="Path_560" data-name="Path 560" d="M33.654,13.611a1.895,1.895,0,1,0,1.895,1.895A1.9,1.9,0,0,0,33.654,13.611Zm0,2.842a.947.947,0,1,1,.947-.947A.948.948,0,0,1,33.654,16.453Z" transform="translate(-9.024 -6.033)" fill="#911"/>
      <path id="Path_561" data-name="Path 561" d="M25.876,13.611a1.895,1.895,0,1,0,1.895,1.895A1.9,1.9,0,0,0,25.876,13.611Zm0,2.842a.947.947,0,1,1,.947-.947A.948.948,0,0,1,25.876,16.453Z" transform="translate(-6.93 -6.033)" fill="#911"/>
      <path id="Path_562" data-name="Path 562" d="M18.1,13.611a1.895,1.895,0,1,0,1.895,1.895A1.9,1.9,0,0,0,18.1,13.611Zm0,2.842a.947.947,0,1,1,.947-.947A.948.948,0,0,1,18.1,16.453Z" transform="translate(-4.836 -6.033)" fill="#911"/>
      <path id="Path_565" data-name="Path 565" d="M21.19,31.211h-.947V22.685H17.4v8.526h-.947V24.58H13.611v7.579H24.032V27.422H21.19Zm-5.684,0h-.947V25.527h.947Zm2.842-7.579H19.3v7.579h-.947Zm3.789,4.737h.947v2.842h-.947Z" transform="translate(-4.138 -8.475)" fill="#911"/>
      <path id="Path_567" data-name="Path 567" d="M29.167,29.167h.947v.947h-.947Z" transform="translate(-8.326 -8.22)" fill="#911"/>
      <path id="Path_568" data-name="Path 568" d="M31.759,29.167H36.5v.947H31.759Z" transform="translate(-9.024 -8.22)" fill="#911"/>
      <path id="Path_571" data-name="Path 571" d="M29.167,34.352h.947V35.3h-.947Z" transform="translate(-8.326 -11.616)" fill="#911"/>
      <path id="Path_572" data-name="Path 572" d="M31.759,34.352H36.5V35.3H31.759Z" transform="translate(-9.024 -11.616)" fill="#911"/>
    </g>
  </g>
</svg>
