<svg xmlns="http://www.w3.org/2000/svg" xmlns:xlink="http://www.w3.org/1999/xlink" width="32" height="31" viewBox="0 0 32 31">
  <defs>
    <clipPath id="clip-path">
      <rect id="Rectangle_1969" data-name="Rectangle 1969" width="32" height="31" transform="translate(1186 492)" fill="#911" stroke="#707070" stroke-width="1"/>
    </clipPath>
  </defs>
  <g id="Mask_Group_4" data-name="Mask Group 4" transform="translate(-1186 -492)" clip-path="url(#clip-path)">
    <g id="dashboard" transform="translate(1186 491.5)">
      <path id="Path_542" data-name="Path 542" d="M28.5,17.265V7.46A3.5,3.5,0,1,0,24.5,4H.5V24H15.526A7.995,7.995,0,1,0,28.5,17.265ZM28,1.5A2.5,2.5,0,1,1,25.5,4,2.5,2.5,0,0,1,28,1.5ZM1.5,5H24.647A3.5,3.5,0,0,0,25.2,6.092L22.143,9.15a1.448,1.448,0,0,0-1.285,0L19.85,8.143A1.486,1.486,0,0,0,20,7.5a1.5,1.5,0,0,0-3,0,1.475,1.475,0,0,0,.15.643L14.643,10.65A1.486,1.486,0,0,0,14,10.5,1.5,1.5,0,1,0,15.5,12a1.475,1.475,0,0,0-.151-.642L17.857,8.85a1.45,1.45,0,0,0,1.285,0L20.15,9.857A1.486,1.486,0,0,0,20,10.5a1.5,1.5,0,0,0,3,0,1.475,1.475,0,0,0-.15-.642L25.908,6.8A3.479,3.479,0,0,0,27.5,7.46v9.123a7.951,7.951,0,0,0-10,1.643V16h-3v6h1.146a8.021,8.021,0,0,0-.12,1H1.5Zm20,5a.5.5,0,1,1-.5.5A.5.5,0,0,1,21.5,10ZM18,7.5a.5.5,0,1,1,.5.5A.5.5,0,0,1,18,7.5ZM14.5,12a.5.5,0,1,1-.5-.5A.5.5,0,0,1,14.5,12Zm9,15.5a4,4,0,1,1,4-4A4,4,0,0,1,23.5,27.5Zm-7-7.865A7.94,7.94,0,0,0,15.906,21H15.5V17h1Zm6.5-3.11v2a4.99,4.99,0,0,0-4.055,7.027l-1.735,1A6.976,6.976,0,0,1,23,16.525ZM23.5,30.5a7,7,0,0,1-5.794-3.077l1.742-1.006a4.984,4.984,0,0,0,8.1,0l1.742,1.006A7,7,0,0,1,23.5,30.5Zm6.289-3.947-1.735-1A4.99,4.99,0,0,0,24,18.525v-2a6.976,6.976,0,0,1,5.789,10.028Z" fill="#911"/>
      <path id="Path_552" data-name="Path 552" d="M2.5,31.5h3V17h-3Zm.913-13.467H4.5V30.592H3.413Z" transform="translate(0 -9.498)" fill="#911"/>
      <path id="Path_553" data-name="Path 553" d="M6.5,22h3V18h-3Zm1-3h1v2h-1Z" fill="#911"/>
      <path id="Path_554" data-name="Path 554" d="M10.5,22h3V14h-3Zm1-7h1v6h-1Z" fill="#911"/>
    </g>
  </g>
</svg>
